


<svg version="1.1" id="Layer_1" xmlns="http://www.w3.org/2000/svg" xmlns:xlink="http://www.w3.org/1999/xlink" x="0px" y="0px"
	 width="300%" viewBox="0 0 924 924" enable-background="new 0 0 1024 1024" xml:space="preserve">
<path fill="#ffffff" opacity="1.000000" stroke="none" 
	d="
M508.373108,732.186523 
	C507.032623,739.626892 505.747009,746.641663 504.392914,753.643066 
	C502.549561,763.173950 494.885071,770.187561 485.302979,770.273071 
	C461.808167,770.482666 438.308929,770.506409 414.814423,770.288391 
	C404.702698,770.194641 396.581635,762.286011 394.745544,751.926208 
	C392.486572,739.180237 389.948120,726.481934 387.854156,713.709900 
	C387.369202,710.752075 386.173798,709.264465 383.511322,708.451904 
	C369.620941,704.212769 356.154572,698.925415 343.486755,691.771912 
	C341.248718,690.508118 339.836670,691.344116 338.133057,692.616455 
	C328.391205,699.892151 318.604706,707.108032 308.826050,714.334351 
	C296.979431,723.088867 285.750122,722.238403 275.307922,711.719055 
	C260.399536,696.700500 245.513931,681.659241 230.656799,666.590027 
	C220.541458,656.330322 219.643311,645.699036 228.023834,633.794983 
	C235.021133,623.855713 242.147034,614.004028 249.392746,604.244751 
	C251.018265,602.055359 251.251602,600.492004 249.875244,598.046326 
	C241.846375,583.780090 235.290665,568.876465 231.359116,552.922607 
	C230.616089,549.907532 228.915909,548.742615 225.835617,548.246155 
	C212.725311,546.132751 199.667450,543.695557 186.584885,541.408325 
	C176.586761,539.660339 169.684738,531.701111 169.666565,521.611633 
	C169.622772,497.281708 169.976456,472.945099 169.485947,448.625000 
	C169.297180,439.265656 175.963165,430.388702 186.297775,428.880554 
	C200.096252,426.866913 213.956482,425.248260 227.819565,423.727936 
	C230.855530,423.394989 232.174103,422.153839 232.999817,419.418365 
	C237.154861,405.653320 243.234283,392.685059 249.966095,380.037445 
	C251.751297,376.683472 251.355103,374.282349 249.193542,371.462463 
	C241.694214,361.679108 234.354843,351.773285 226.915710,341.943512 
	C217.766479,329.854126 218.254013,319.480743 228.932999,308.562958 
	C244.545792,292.601013 260.263611,276.740204 276.067108,260.967010 
	C285.510345,251.541901 297.824890,251.495895 307.816254,260.439697 
	C317.623718,269.218872 327.561279,277.853821 337.297729,286.710388 
	C339.841766,289.024506 341.813843,289.606140 345.119904,287.854645 
	C357.062378,281.527740 369.656158,276.661774 382.584534,272.759491 
	C386.646637,271.533417 388.335022,269.613007 388.862793,265.186432 
	C390.453400,251.845032 392.609131,238.565109 394.797394,225.302917 
	C396.213470,216.720551 404.535706,209.827103 413.811615,209.762878 
	C437.473877,209.599060 461.138733,209.604568 484.801086,209.762375 
	C494.679169,209.828232 502.782898,217.385330 504.340027,227.204636 
	C506.367188,239.987717 508.598846,252.740082 510.461792,265.546509 
	C511.115631,270.041473 512.997925,272.424957 517.552185,273.670563 
	C527.182007,276.304443 536.515991,279.908936 545.723267,283.799438 
	C553.802429,287.213257 556.323853,291.013123 556.326904,299.906342 
	C556.332275,315.404205 556.454834,330.903748 556.246460,346.398804 
	C556.190063,350.592773 557.607971,351.960114 561.702209,351.819336 
	C568.859497,351.573181 576.036987,351.572540 583.194702,351.810150 
	C587.287659,351.946014 588.763489,350.538483 588.710022,346.371094 
	C588.519775,331.542206 588.642090,316.709473 588.616638,301.878265 
	C588.600586,292.527374 592.463989,287.736389 600.142578,287.678162 
	C607.810730,287.619965 613.231750,293.435303 613.304016,302.197021 
	C613.422241,316.527435 613.339111,330.859467 613.350037,345.190796 
	C613.355042,351.722473 613.364868,351.737030 619.973145,351.747650 
	C629.138550,351.762390 638.311646,351.529968 647.466187,351.845825 
	C652.152893,352.007538 653.861694,350.723480 653.759155,345.754272 
	C653.449829,330.762665 653.629089,315.760651 653.653320,300.762726 
	C653.666199,292.752319 657.619263,287.941345 664.655273,287.251465 
	C671.180176,286.611755 676.254089,290.745392 677.808838,298.196686 
	C678.245544,300.290009 678.275208,302.493652 678.281738,304.647308 
	C678.324585,318.811890 678.392578,332.977448 678.255127,347.140778 
	C678.221436,350.611084 679.408203,351.737518 682.872314,351.810303 
	C693.988953,352.043945 705.186584,350.666138 716.189392,353.510498 
	C736.764221,358.829315 751.032715,375.128601 753.399414,396.184875 
	C754.144531,402.813965 754.353577,402.989014 761.068665,402.983459 
	C779.399414,402.968353 797.730774,402.878754 816.060364,403.018646 
	C820.111694,403.049561 822.674438,402.030090 824.887512,398.220306 
	C833.333984,383.679596 849.829346,377.279083 865.169495,382.062469 
	C880.953491,386.984283 891.240356,401.817230 890.257324,418.237610 
	C889.265137,434.810120 877.652893,447.476807 860.679626,450.500885 
	C846.840088,452.966583 832.941772,446.852295 825.418823,434.175873 
	C822.715210,429.620117 819.621826,428.217865 814.583313,428.288086 
	C796.589294,428.538940 778.586853,428.563538 760.593872,428.278870 
	C755.448975,428.197479 754.084534,429.853394 754.197815,434.849060 
	C754.518799,449.006531 754.445801,463.177917 754.235229,477.339447 
	C754.172974,481.525177 755.578308,482.868530 759.690979,482.721161 
	C767.180481,482.452820 774.695129,482.417206 782.181580,482.721863 
	C786.329529,482.890656 788.782837,481.434845 791.156494,478.016052 
	C803.076233,460.848022 825.536926,457.904266 841.424683,471.157990 
	C851.370972,479.455261 855.227356,494.390533 850.714478,507.136475 
	C846.213867,519.847778 834.432800,528.192383 820.966736,528.369690 
	C807.382324,528.548584 797.306641,522.651550 790.571533,510.985779 
	C789.180420,508.576202 787.543640,507.311401 784.640381,507.353058 
	C775.976685,507.477448 767.308716,507.485596 758.645264,507.354462 
	C755.396301,507.305298 754.249817,508.559357 754.270874,511.773102 
	C754.372314,527.270264 754.383728,542.768982 754.272095,558.265930 
	C754.247803,561.642517 755.348755,563.088562 758.854309,563.067810 
	C778.517273,562.951294 798.181091,562.912964 817.844177,562.982605 
	C821.295654,562.994812 823.208618,561.542969 824.936401,558.644348 
	C833.012756,545.095154 845.506714,539.942810 860.616028,541.870117 
	C874.315735,543.617493 883.887512,551.627197 888.257446,564.811829 
	C893.053040,579.280823 889.881653,592.103882 878.471130,602.504944 
	C863.079834,616.534790 836.981567,612.895203 826.389771,594.869019 
	C823.326233,589.655212 819.936768,587.954407 814.084778,588.079285 
	C796.928528,588.445496 779.759094,588.198364 762.594849,588.187012 
	C754.420166,588.181641 754.451172,588.181091 753.400024,596.490784 
	C751.592529,610.778992 744.904785,622.246765 733.313538,630.797729 
	C724.739990,637.122559 715.090881,640.310791 704.425598,640.349060 
	C697.593262,640.373535 690.750244,640.590149 683.932190,640.278931 
	C679.589844,640.080750 678.120911,641.422546 678.200806,645.896973 
	C678.459717,660.390381 678.390442,674.892029 678.259277,689.388794 
	C678.208557,694.997192 675.684021,699.328979 670.260071,701.517151 
	C665.377258,703.486938 661.094055,702.136597 657.370544,698.753967 
	C654.628845,696.263184 653.597473,693.066589 653.619263,689.334473 
	C653.704102,674.836975 653.543152,660.337341 653.715210,645.841431 
	C653.762695,641.838013 652.664917,640.173767 648.374084,640.287598 
	C638.549072,640.548340 628.707153,640.555115 618.882629,640.285522 
	C614.411499,640.162781 613.162476,641.809631 613.229065,646.105286 
	C613.440857,659.766663 613.287659,673.433533 613.289978,687.098328 
	C613.290405,689.435120 613.188660,691.721985 612.463196,693.998657 
	C610.466492,700.264465 605.359070,703.939087 599.376892,703.244751 
	C593.245056,702.533081 588.730164,697.452271 588.689209,690.800964 
	C588.598022,675.970215 588.505310,661.135986 588.751099,646.308777 
	C588.826721,641.745361 587.476379,640.067932 582.813049,640.286743 
	C575.829712,640.614380 568.806152,640.617676 561.824646,640.265076 
	C557.261902,640.034668 556.171875,641.794983 556.257385,646.050171 
	C556.498291,658.043640 556.173401,670.048340 556.403015,682.042297 
	C556.540039,689.196899 553.206299,693.639954 546.932434,696.356873 
	C537.457397,700.460144 527.852783,704.283752 517.936829,707.114746 
	C513.453857,708.394653 511.929382,710.972046 511.335388,715.108093 
	C510.534851,720.682739 509.392853,726.208313 508.373108,732.186523 
M262.928284,664.560730 
	C271.181854,672.794861 279.420349,681.044189 287.694122,689.257996 
	C293.595612,695.116760 293.551544,695.009094 300.059143,690.093628 
	C309.891907,682.666565 319.772247,675.299683 329.736786,668.050720 
	C336.166168,663.373535 342.748291,663.308105 349.820953,667.226318 
	C365.146973,675.716858 381.056946,682.857910 398.239349,686.884033 
	C406.001526,688.702942 410.194061,693.627319 411.461426,701.791199 
	C413.445740,714.573547 416.227661,727.231995 418.665314,739.944214 
	C419.232941,742.904297 420.048004,745.036316 423.991547,744.987488 
	C441.318146,744.772949 458.649048,744.857300 475.977997,744.924683 
	C478.996674,744.936401 480.354553,743.906921 480.882385,740.744385 
	C482.985077,728.146301 485.707001,715.645569 487.576782,703.016602 
	C488.888641,694.155945 492.531494,688.355530 501.865082,686.296448 
	C510.784729,684.328857 519.408752,681.136780 527.911316,677.711182 
	C530.339600,676.732849 531.721313,675.456665 531.684753,672.605957 
	C531.565369,663.276306 531.555237,653.943237 531.676208,644.613708 
	C531.719421,641.279480 530.255737,640.236450 527.137573,640.327454 
	C522.309509,640.468323 517.474182,640.382507 512.642090,640.354675 
	C492.033875,640.235962 474.193024,627.678528 466.646515,608.597839 
	C461.951233,596.726379 462.719574,584.436157 462.663696,572.154663 
	C462.632446,565.289673 462.649597,565.204102 455.845947,565.270203 
	C443.241150,565.392639 430.868164,564.128723 419.415314,558.437988 
	C390.240234,543.941162 373.182098,512.648560 378.544586,479.416351 
	C383.348389,449.646515 400.006866,429.936890 428.355194,420.116058 
	C437.741943,416.864136 447.637573,416.710175 457.463989,416.854675 
	C461.313599,416.911285 462.955658,415.577911 462.699829,411.620087 
	C462.463928,407.970245 462.612610,404.290741 462.688293,400.626312 
	C463.110413,380.189575 475.575653,362.658966 494.638672,355.244202 
	C504.555511,351.386902 514.862244,351.556396 525.166016,351.831879 
	C529.476746,351.947113 531.055298,350.655060 530.953064,346.191437 
	C530.682373,334.366730 530.564087,322.523621 530.944824,310.705841 
	C531.111084,305.546143 529.210022,303.292572 524.450134,301.937836 
	C515.662109,299.436615 507.037445,296.364471 498.327667,293.583618 
	C491.468170,291.393585 487.673096,286.916321 486.538971,279.658997 
	C484.464081,266.381989 481.922760,253.178177 479.628448,239.934769 
	C479.148224,237.163101 478.130615,235.349915 474.864838,235.363251 
	C457.702515,235.433395 440.539703,235.414062 423.377197,235.373947 
	C420.720825,235.367737 419.634064,236.440384 419.241180,239.148834 
	C417.383331,251.957657 414.917236,264.689606 413.431396,277.537292 
	C412.346771,286.915802 407.901428,291.976013 398.757629,294.508759 
	C381.409363,299.314026 364.696045,305.933319 348.876129,314.673218 
	C340.441040,319.333252 334.628387,318.652527 327.421631,312.250122 
	C317.084961,303.067078 306.707977,293.920898 296.640167,284.448639 
	C293.383759,281.384857 291.453705,281.116211 288.213867,284.460419 
	C275.925446,297.144745 263.501343,309.708069 250.787933,321.963928 
	C246.967636,325.646729 247.302780,328.004517 250.404236,331.831207 
	C259.211517,342.698059 267.621155,353.887665 276.163025,364.968964 
	C280.241913,370.260406 281.035309,376.317444 277.557831,381.784149 
	C266.725494,398.812927 258.719818,416.933258 254.218353,436.624603 
	C252.985596,442.017242 249.273560,445.193848 243.836609,446.148956 
	C240.731766,446.694336 237.574326,446.934784 234.445572,447.350372 
	C222.431229,448.946198 210.428192,450.632690 198.399582,452.111572 
	C195.256012,452.498047 194.272736,453.843048 194.291962,456.956848 
	C194.409271,475.951660 194.385147,494.947693 194.313248,513.942993 
	C194.301956,516.927612 195.151367,518.321655 198.410217,518.838318 
	C211.690796,520.943726 224.899292,523.499695 238.168304,525.683472 
	C248.334473,527.356506 251.273270,529.570740 253.520615,539.754395 
	C257.684631,558.623413 264.508972,576.340698 274.895508,592.685791 
	C278.621979,598.550110 278.440674,604.771118 274.898468,610.655579 
	C272.500610,614.639038 269.621033,618.337463 266.886841,622.112549 
	C260.461975,630.983337 253.995117,639.823730 247.014603,649.404602 
	C252.315887,654.457397 257.364868,659.269714 262.928284,664.560730 
M487.349792,467.499908 
	C487.349884,507.664459 487.327057,547.828979 487.360962,587.993530 
	C487.375122,604.755859 498.185364,615.623718 514.798523,615.628357 
	C577.294983,615.645813 639.791870,615.520996 702.287659,615.728333 
	C716.108459,615.774170 729.051331,605.982056 728.965271,589.163757 
	C728.647888,527.169128 728.884277,465.171692 728.878418,403.175323 
	C728.878174,400.197937 728.907837,397.220703 727.889160,394.293579 
	C724.087646,383.370117 715.847107,377.272308 704.143677,377.263794 
	C640.980652,377.217865 577.817627,377.231598 514.654602,377.232239 
	C497.397247,377.232422 487.377197,387.229736 487.356079,404.503387 
	C487.330811,425.168854 487.350220,445.834381 487.349792,467.499908 
M453.527435,540.626099 
	C462.646667,540.557800 462.655792,540.557800 462.657867,531.312866 
	C462.663483,506.181244 462.662964,481.049591 462.660309,455.917969 
	C462.658844,442.185211 462.654877,442.212341 448.986603,442.316315 
	C424.060486,442.505981 397.309784,464.349396 402.831421,499.236877 
	C406.870697,524.758057 426.598206,540.319885 453.527435,540.626099 
M866.283203,414.867615 
	C866.031799,413.903473 865.880127,412.899384 865.512451,411.981812 
	C863.373535,406.643921 857.800842,403.644287 852.764587,405.067413 
	C846.807007,406.750916 843.438660,411.963074 844.436646,417.953949 
	C845.389526,423.673523 850.234314,427.243164 856.391846,426.762482 
	C861.913818,426.331451 864.938721,422.957825 866.283203,414.867615 
M854.669067,565.375183 
	C847.350159,566.880920 843.129822,572.467896 844.587341,578.721436 
	C845.848022,584.130432 851.198730,588.171265 856.294800,587.562744 
	C861.438171,586.948669 866.268066,581.837219 866.493347,576.769714 
	C866.737244,571.285034 861.881531,566.270203 854.669067,565.375183 
M810.681885,495.597961 
	C811.078186,497.020905 811.216736,498.588867 811.920105,499.839081 
	C813.878174,503.319580 816.958862,505.106903 820.996582,504.522827 
	C825.043213,503.937469 827.531128,501.284637 828.416077,497.450470 
	C829.335693,493.465912 827.630310,490.243073 824.247314,488.139038 
	C818.795654,484.748444 813.137329,487.662811 810.681885,495.597961 
z"/>
<path fill="#0075b0" opacity="1.000000" stroke="none" 
	d="
M458.771423,356.378174 
	C425.833984,355.075470 396.422943,363.971252 370.339996,383.298035 
	C340.223267,405.613800 322.170013,435.478027 317.360199,472.634857 
	C311.036743,521.484741 327.504395,561.825256 364.644806,594.006958 
	C383.533234,610.373596 405.387024,620.247498 429.869720,624.301941 
	C436.885834,625.463928 444.128967,625.266418 451.269684,625.661987 
	C457.575134,626.011414 461.786163,628.831604 463.644653,634.061462 
	C465.410950,639.031921 463.918671,643.264221 460.407654,646.845337 
	C457.687958,649.619263 454.172729,650.327209 450.347992,650.401794 
	C426.243500,650.871887 403.291168,645.592407 381.954346,634.792175 
	C333.868134,610.451843 303.718170,571.607422 294.085571,518.566284 
	C285.664337,472.195312 296.628387,429.513885 325.742920,392.289459 
	C350.844238,360.196075 383.986908,340.890381 424.181702,333.493683 
	C438.444397,330.869080 452.711151,331.820160 466.986176,331.768860 
	C475.304260,331.738953 481.160248,337.778625 480.854736,345.063324 
	C480.552429,352.271088 474.086945,357.341949 465.710510,356.900726 
	C463.552063,356.787048 461.399689,356.556732 458.771423,356.378174 
z"/>
<path fill="#0075b0" opacity="1.000000" stroke="none" 
	d="
M571.000000,573.127930 
	C564.004150,573.121338 557.505249,573.240051 551.013184,573.080139 
	C539.677551,572.801025 531.674561,564.579956 531.666809,553.280518 
	C531.640869,515.637634 531.643921,477.994781 531.657593,440.351929 
	C531.661865,428.542358 539.682678,420.030365 551.585876,419.977753 
	C589.227966,419.811432 626.871155,419.861481 664.513794,419.928558 
	C676.512878,419.949951 684.748535,428.773010 684.563171,440.426331 
	C683.964661,478.059662 683.984863,515.713928 684.561768,553.348022 
	C684.730530,564.355408 675.911072,573.328064 664.440430,573.198364 
	C640.958374,572.932861 617.471191,573.123474 593.986084,573.126038 
	C586.490723,573.126892 578.995361,573.127258 571.000000,573.127930 
M557.013306,500.500000 
	C557.012695,514.161377 557.185303,527.826172 556.917419,541.482300 
	C556.823853,546.254028 558.285095,547.771729 563.133240,547.739319 
	C592.953674,547.539978 622.777039,547.514709 652.596924,547.747986 
	C657.778503,547.788574 659.065857,546.091003 659.037292,541.171326 
	C658.863159,511.184143 658.888367,481.194763 659.073853,451.207550 
	C659.102173,446.623688 657.730164,445.187408 653.106079,445.237335 
	C632.783020,445.456757 612.456238,445.323547 592.130798,445.325592 
	C581.801514,445.326630 571.471802,445.399323 561.143188,445.318359 
	C558.116394,445.294647 556.760925,445.948151 556.816101,449.523041 
	C557.073059,466.179077 556.981445,482.840515 557.013306,500.500000 
z"/>
</svg>